<?xml version="1.0" standalone="no"?>
<!DOCTYPE svg PUBLIC "-//W3C//DTD SVG 20010904//EN"
 "http://www.w3.org/TR/2001/REC-SVG-20010904/DTD/svg10.dtd">
<svg version="1.0" xmlns="http://www.w3.org/2000/svg"
 width="700.000000pt" height="700.000000pt" viewBox="0 0 700.000000 700.000000"
 preserveAspectRatio="xMidYMid meet">
<metadata>
Created by potrace 1.11, written by Peter Selinger 2001-2013
</metadata>
<g transform="translate(0.000000,700.000000) scale(0.100000,-0.100000)"
fill="#000000" stroke="none">
<path d="M3265 6989 c-523 -54 -957 -276 -1250 -639 -113 -140 -233 -350 -286
-500 -12 -36 -26 -69 -29 -75 -8 -10 -65 -227 -74 -280 -3 -16 -8 -39 -10 -50
-33 -169 -39 -278 -41 -725 0 -263 3 -427 10 -467 26 -143 128 -275 260 -338
40 -19 77 -35 83 -35 6 0 13 -24 16 -52 3 -29 8 -73 10 -98 24 -238 165 -572
320 -758 154 -186 300 -309 486 -409 l72 -38 -6 -67 c-15 -171 -119 -326 -267
-396 -78 -37 -140 -49 -285 -56 -409 -21 -796 -266 -991 -626 -30 -57 -90
-198 -98 -235 -2 -11 -9 -38 -14 -60 -10 -42 -16 -72 -26 -145 -7 -45 -9 -821
-3 -851 12 -56 85 -100 142 -85 32 8 74 49 82 81 3 14 11 25 18 26 43 4 4229
3 4234 -1 4 -3 16 -22 26 -43 11 -21 33 -45 50 -54 53 -28 136 1 158 55 12 31
15 758 3 863 -17 158 -73 334 -150 469 -161 284 -449 501 -760 574 -98 23
-125 27 -235 32 -232 11 -328 59 -476 239 -40 48 -43 50 -92 50 -48 0 -52 2
-62 30 -6 17 -14 58 -17 92 -6 59 -5 63 18 72 323 126 623 394 796 712 48 88
124 285 138 358 2 9 8 34 13 56 17 66 29 189 31 312 l1 62 55 25 c65 30 145
106 170 163 16 36 24 43 55 48 23 4 49 18 66 36 l29 30 2 402 c1 221 4 443 7
492 6 107 33 205 81 298 36 70 112 177 125 177 14 0 42 71 42 105 0 24 -15 57
-52 112 -200 298 -497 519 -843 627 -87 27 -88 28 -74 50 31 46 25 110 -12
145 -30 28 -195 103 -324 147 -154 53 -413 115 -542 130 -33 3 -69 9 -80 11
-35 8 -428 10 -500 2z"/>
</g>
</svg>
